<svg width="1367" height="396" viewBox="0 0 1367 396" fill="none" xmlns="http://www.w3.org/2000/svg">
<path fill-rule="evenodd" clip-rule="evenodd" d="M1257.39 172.505C1245.76 169.161 1235.84 164.564 1227.75 158.619L1224.72 156.391L1238.62 118.705L1243.93 122.438C1250.68 127.177 1258.42 130.947 1267.17 133.72C1276.02 136.476 1285.25 137.86 1294.88 137.86C1305.66 137.86 1312.22 136.165 1315.66 133.734C1319.49 130.977 1320.93 128.019 1320.93 124.69C1320.93 121.714 1319.9 119.68 1317.81 118.066C1315.37 116.178 1310.4 114.139 1302.11 112.328C1302.1 112.327 1302.1 112.326 1302.1 112.325L1276.14 106.812C1261.06 103.621 1249.14 97.9964 1240.97 89.5208C1232.69 80.9384 1228.7 69.8908 1228.7 56.8401C1228.7 45.6207 1231.73 35.6119 1237.91 27.0222C1244.02 18.3831 1252.44 11.7891 1262.98 7.17928L1262.99 7.1736L1263 7.168C1273.71 2.55716 1285.9 0.320068 1299.48 0.320068C1311.16 0.320068 1322.19 2.00093 1332.55 5.39927C1342.91 8.7968 1351.68 13.6359 1358.73 20.0124L1361.29 22.3353L1347.2 58.0453L1341.92 53.8584C1330.33 44.675 1316.21 39.9901 1299.25 39.9901C1290.17 39.9901 1283.83 41.8034 1279.62 44.8087L1279.61 44.8169L1279.6 44.8249C1275.6 47.642 1273.89 50.9989 1273.89 55.2301C1273.89 58.298 1274.92 60.4851 1276.98 62.2438C1279.21 64.1554 1283.77 66.1727 1291.55 67.8183L1291.55 67.8192L1317.54 73.3392L1317.55 73.3412L1317.56 73.3433C1332.95 76.6759 1345.11 82.2323 1353.47 90.4129C1361.95 98.7264 1366.12 109.373 1366.12 121.93C1366.12 133.017 1363.08 142.948 1356.9 151.526C1350.92 159.898 1342.47 166.324 1331.82 170.912L1331.8 170.92L1331.79 170.927C1321.22 175.386 1308.87 177.53 1294.88 177.53C1281.73 177.53 1269.23 175.866 1257.41 172.51L1257.39 172.505ZM1352.84 148.61C1358.36 140.943 1361.12 132.05 1361.12 121.93C1361.12 99.2367 1346.25 84.6701 1316.5 78.2301L1290.51 72.7101C1282.54 71.0234 1276.94 68.8001 1273.72 66.0401C1270.5 63.2801 1268.89 59.6767 1268.89 55.2301C1268.89 49.2501 1271.5 44.4201 1276.71 40.7401C1282.08 36.9067 1289.59 34.9901 1299.25 34.9901C1315.25 34.9901 1329.12 38.9548 1340.85 46.8842C1342.27 47.8446 1343.66 48.8633 1345.02 49.9401L1355.37 23.7201C1348.93 17.8934 1340.81 13.3701 1330.99 10.1501C1321.18 6.93007 1310.68 5.32006 1299.48 5.32006C1286.45 5.32006 1274.95 7.46673 1264.98 11.7601C1255.17 16.0534 1247.5 22.1101 1241.98 29.9301C1236.46 37.5967 1233.7 46.5667 1233.7 56.8401C1233.7 80.7601 1248.19 95.7867 1277.17 101.92L1303.16 107.44C1311.6 109.28 1317.5 111.503 1320.87 114.11C1324.25 116.717 1325.93 120.243 1325.93 124.69C1325.93 129.903 1323.48 134.273 1318.57 137.8C1313.82 141.173 1305.92 142.86 1294.88 142.86C1284.76 142.86 1275.03 141.403 1265.67 138.49C1258.25 136.14 1251.48 133.091 1245.35 129.344C1243.89 128.446 1242.45 127.508 1241.06 126.53L1230.71 154.59C1238.23 160.11 1247.58 164.48 1258.77 167.7C1270.12 170.92 1282.16 172.53 1294.88 172.53C1308.38 172.53 1320.03 170.46 1329.84 166.32C1339.81 162.027 1347.48 156.123 1352.84 148.61Z" fill="url(#paint0_radial_79_5071)"/>
<path fill-rule="evenodd" clip-rule="evenodd" d="M588.671 172.505C577.046 169.161 567.125 164.564 559.033 158.619L556 156.391L569.9 118.705L575.217 122.438C581.966 127.177 589.698 130.947 598.454 133.72C607.306 136.476 616.536 137.86 626.164 137.86C636.941 137.86 643.505 136.165 646.944 133.734C650.775 130.977 652.214 128.019 652.214 124.69C652.214 121.714 651.184 119.68 649.096 118.066C646.653 116.178 641.685 114.139 633.39 112.328C633.386 112.327 633.382 112.326 633.378 112.325L607.418 106.812C592.344 103.621 580.425 97.9964 572.252 89.5208C563.976 80.9384 559.984 69.8908 559.984 56.8401C559.984 45.6207 563.016 35.6119 569.196 27.0222C575.301 18.3831 583.723 11.7891 594.259 7.17928L594.272 7.1736L594.285 7.168C604.989 2.55716 617.184 0.320068 630.764 0.320068C642.442 0.320068 653.475 2.00093 663.832 5.39927C674.187 8.7968 682.96 13.6359 690.008 20.0124L692.576 22.3353L678.479 58.0453L673.198 53.8584C661.612 44.675 647.487 39.9901 630.534 39.9901C621.454 39.9901 615.107 41.8034 610.9 44.8087L610.888 44.8169L610.877 44.8249C606.886 47.642 605.174 50.9989 605.174 55.2301C605.174 58.298 606.206 60.4851 608.257 62.2438C610.488 64.1554 615.049 66.1727 622.828 67.8183L622.832 67.8192L648.822 73.3392L648.832 73.3412L648.842 73.3433C664.235 76.6759 676.394 82.2323 684.747 90.4129C693.236 98.7264 697.404 109.373 697.404 121.93C697.404 133.017 694.36 142.948 688.185 151.526C682.202 159.898 673.753 166.324 663.102 170.912L663.084 170.92L663.067 170.927C652.498 175.386 640.153 177.53 626.164 177.53C613.012 177.53 600.513 175.866 588.688 172.51L588.671 172.505ZM684.124 148.61C689.644 140.943 692.404 132.05 692.404 121.93C692.404 99.2367 677.53 84.6701 647.784 78.2301L621.794 72.7101C613.82 71.0234 608.224 68.8001 605.004 66.0401C601.784 63.2801 600.174 59.6767 600.174 55.2301C600.174 49.2501 602.78 44.4201 607.994 40.7401C613.36 36.9067 620.874 34.9901 630.534 34.9901C646.535 34.9901 660.402 38.9548 672.134 46.8842C673.555 47.8446 674.945 48.8633 676.304 49.9401L686.654 23.7201C680.214 17.8934 672.087 13.3701 662.274 10.1501C652.46 6.93007 641.957 5.32006 630.764 5.32006C617.73 5.32006 606.23 7.46673 596.264 11.7601C586.45 16.0534 578.784 22.1101 573.264 29.9301C567.744 37.5967 564.984 46.5667 564.984 56.8401C564.984 80.7601 579.474 95.7867 608.453 101.92L634.443 107.44C642.877 109.28 648.78 111.503 652.154 114.11C655.527 116.717 657.214 120.243 657.214 124.69C657.214 129.903 654.76 134.273 649.854 137.8C645.1 141.173 637.203 142.86 626.164 142.86C616.044 142.86 606.307 141.403 596.953 138.49C589.532 136.14 582.759 133.091 576.635 129.344C575.167 128.446 573.737 127.508 572.344 126.53L561.994 154.59C569.507 160.11 578.86 164.48 590.054 167.7C601.4 170.92 613.437 172.53 626.164 172.53C639.657 172.53 651.31 170.46 661.124 166.32C671.09 162.027 678.757 156.123 684.124 148.61Z" fill="url(#paint1_radial_79_5071)"/>
<path fill-rule="evenodd" clip-rule="evenodd" d="M1039.34 175L1118.45 2.8501H1153.61L1232.73 175H1185.76L1170.58 139.81H1101.51L1086.56 175H1039.34ZM1098.2 134.81H1173.87L1189.05 170H1224.93L1150.41 7.8501H1121.66L1047.14 170H1083.25L1098.2 134.81ZM1110.16 106.98H1162.14L1136.15 45.8001H1135.69L1110.16 106.98ZM1135.96 58.1386L1117.66 101.98H1154.58L1135.96 58.1386Z" fill="url(#paint2_radial_79_5071)"/>
<path fill-rule="evenodd" clip-rule="evenodd" d="M859.755 175V2.8501H897.382L949.156 97.0431L1000.71 2.8501H1037.88V175H995.455V90.2105L961.521 150.62H935.664L901.955 90.8374V175H859.755ZM896.955 71.7901L938.585 145.62H958.595L1000.45 71.1001V170H1032.88V7.8501H1003.67L949.165 107.44L894.425 7.8501H864.755V170H896.955V71.7901Z" fill="url(#paint3_radial_79_5071)"/>
<path fill-rule="evenodd" clip-rule="evenodd" d="M752.612 175V42.2901H699.022V2.8501H851.852V42.2901H798.262V175H752.612ZM793.262 37.2901H846.852V7.8501H704.022V37.2901H757.612V170H793.262V37.2901Z" fill="url(#paint4_radial_79_5071)"/>
<path fill-rule="evenodd" clip-rule="evenodd" d="M501.941 175V2.8501H547.591V175H501.941ZM506.941 170H542.591V7.8501H506.941V170Z" fill="url(#paint5_radial_79_5071)"/>
<path fill-rule="evenodd" clip-rule="evenodd" d="M341.795 175V2.8501H420.855C439.711 2.8501 455.016 7.40746 466.04 17.2263C477.122 27.0959 482.435 40.7602 482.435 57.5301C482.435 70.54 479.043 81.7882 471.968 90.9387C467.278 97.0356 461.248 101.742 454.005 105.121C458.656 108.707 462.621 113.554 465.932 119.496L465.943 119.516L496.208 175H445.478L416.024 120.678C416.02 120.671 416.016 120.664 416.012 120.656C414.09 117.204 411.968 115.27 409.816 114.292L409.732 114.254L409.649 114.212C407.106 112.941 403.917 112.21 399.925 112.21H387.445V175H341.795ZM382.445 107.21H399.925C404.525 107.21 408.512 108.053 411.885 109.74C415.258 111.273 418.095 114.11 420.395 118.25L448.455 170H487.785L461.565 121.93C457.916 115.384 453.554 110.528 448.478 107.361C446.302 106.003 443.994 104.956 441.555 104.22C444.151 103.562 446.611 102.776 448.933 101.86C456.899 98.7201 463.256 94.0634 468.005 87.8901C474.292 79.7634 477.435 69.6434 477.435 57.5301C477.435 41.8901 472.528 29.7001 462.715 20.9601C452.902 12.2201 438.948 7.8501 420.855 7.8501H346.795V170H382.445V107.21ZM387.445 76.4501H414.415C423.464 76.4501 429.326 74.6184 432.854 71.7958C436.169 69.1435 438.165 65.0132 438.165 58.4501C438.165 51.9811 436.181 47.9123 432.873 45.2922C429.343 42.496 423.473 40.6801 414.415 40.6801H387.445V76.4501ZM414.415 81.4501C433.582 81.4501 443.165 73.7834 443.165 58.4501C443.165 43.2701 433.582 35.6801 414.415 35.6801H382.445V81.4501H414.415Z" fill="url(#paint6_radial_79_5071)"/>
<path fill-rule="evenodd" clip-rule="evenodd" d="M162.332 175V2.8501H207.982V67.9401H273.422V2.8501H319.072V175H273.422V107.61H207.982V175H162.332ZM202.982 102.61H278.422V170H314.072V7.8501H278.422V72.9401H202.982V7.8501H167.332V170H202.982V102.61Z" fill="url(#paint7_radial_79_5071)"/>
<path fill-rule="evenodd" clip-rule="evenodd" d="M10.9789 135.555L10.9619 135.522C3.92513 122.103 0.5 106.479 0.5 88.8101C0.5 71.2881 3.92766 55.8084 10.9737 42.5356L10.9789 42.5258L10.9842 42.516C18.182 29.1019 28.45 18.6669 41.7118 11.2993C55.0273 3.90178 70.854 0.320068 88.99 0.320068C100.257 0.320068 111.081 2.09236 121.435 5.65164C131.771 9.20467 140.466 14.1241 147.359 20.5129L149.855 22.8268L135.141 60.5319L129.85 56.4168C123.309 51.329 116.807 47.7092 110.347 45.4625L110.285 45.4408L110.223 45.4174C103.91 43.0325 97.2272 41.8301 90.14 41.8301C75.654 41.8301 65.4722 46.0245 58.7025 53.7044C51.9628 61.3708 48.22 72.8175 48.22 88.8101C48.22 104.785 51.9549 116.328 58.7166 124.162C65.4863 131.831 75.664 136.02 90.14 136.02C97.2521 136.02 103.957 134.886 110.286 132.639C116.778 130.236 123.301 126.528 129.85 121.433L135.141 117.318L149.873 155.069L147.31 157.382C140.442 163.579 131.789 168.478 121.501 172.175L121.468 172.187L121.435 172.199C111.081 175.758 100.257 177.53 88.99 177.53C70.854 177.53 55.0273 173.948 41.7118 166.551C28.4661 159.192 18.1989 148.846 10.9964 135.587L10.9789 135.555ZM111.99 137.34C105.09 139.793 97.8067 141.02 90.14 141.02C74.6533 141.02 62.9233 136.497 54.95 127.45C47.13 118.403 43.22 105.523 43.22 88.8101C43.22 72.0967 47.13 59.2934 54.95 50.4001C62.9233 41.3534 74.6533 36.8301 90.14 36.8301C97.8067 36.8301 105.09 38.1334 111.99 40.7401C117.625 42.7 123.211 45.5895 128.747 49.4087C130.141 50.3703 131.532 51.3907 132.92 52.4701L143.96 24.1801C137.673 18.3534 129.623 13.7534 119.81 10.3801C109.997 7.00673 99.7233 5.32006 88.99 5.32006C71.51 5.32006 56.56 8.77007 44.14 15.6701C31.72 22.5701 22.1367 32.3067 15.39 44.8801C8.79667 57.3001 5.5 71.9434 5.5 88.8101C5.5 105.83 8.79667 120.627 15.39 133.2C22.1367 145.62 31.72 155.28 44.14 162.18C56.56 169.08 71.51 172.53 88.99 172.53C99.7233 172.53 109.997 170.843 119.81 167.47C129.623 163.943 137.673 159.343 143.96 153.67L132.92 125.38C131.533 126.459 130.143 127.482 128.75 128.449C123.212 132.294 117.626 135.257 111.99 137.34Z" fill="url(#paint8_radial_79_5071)"/>
<path fill-rule="evenodd" clip-rule="evenodd" d="M1215.87 393V220.85H1249.75L1323.28 314.638V220.85H1366.4V393H1332.74L1258.99 298.975V393H1215.87ZM1253.99 284.5L1335.18 388H1361.4V225.85H1328.28V329.12L1247.32 225.85H1220.87V388H1253.99V284.5Z" fill="url(#paint9_radial_79_5071)"/>
<path fill-rule="evenodd" clip-rule="evenodd" d="M1068.42 384.506L1068.39 384.487C1055.63 376.965 1045.65 366.558 1038.47 353.357L1038.46 353.325L1038.44 353.292C1031.41 339.879 1027.98 324.334 1027.98 306.81C1027.98 289.288 1031.41 273.808 1038.45 260.536L1038.46 260.526L1038.46 260.516C1045.63 247.151 1055.64 236.72 1068.43 229.339C1081.27 221.933 1096.19 218.32 1113.02 218.32C1129.84 218.32 1144.76 221.93 1157.59 229.33C1170.54 236.707 1180.55 247.14 1187.58 260.525C1194.78 273.794 1198.29 289.199 1198.29 306.58C1198.29 324.113 1194.78 339.668 1187.58 353.085C1180.56 366.469 1170.55 376.972 1157.62 384.501L1157.62 384.506L1157.61 384.511C1144.77 391.917 1129.85 395.53 1113.02 395.53C1096.33 395.53 1081.42 391.913 1068.45 384.525L1068.42 384.506ZM1183.17 350.74C1189.92 338.167 1193.29 323.447 1193.29 306.58C1193.29 289.867 1189.92 275.3 1183.17 262.88C1176.58 250.307 1167.22 240.57 1155.11 233.67C1143.15 226.77 1129.12 223.32 1113.02 223.32C1096.92 223.32 1082.89 226.77 1070.93 233.67C1058.97 240.57 1049.62 250.307 1042.87 262.88C1036.28 275.3 1032.98 289.943 1032.98 306.81C1032.98 323.677 1036.28 338.397 1042.87 350.97C1049.62 363.39 1058.97 373.127 1070.93 380.18C1083.04 387.08 1097.07 390.53 1113.02 390.53C1129.12 390.53 1143.15 387.08 1155.11 380.18C1167.22 373.127 1176.58 363.313 1183.17 350.74ZM1140.87 270.857L1140.86 270.841C1134.43 262.841 1125.38 258.68 1113.02 258.68C1101 258.68 1091.99 262.814 1085.38 270.88C1078.85 278.878 1075.24 290.626 1075.24 306.81C1075.24 322.798 1078.83 334.665 1085.4 343.005C1092.01 351.048 1101.02 355.17 1113.02 355.17C1125.21 355.17 1134.19 351.023 1140.63 343.009L1140.64 343.001C1147.36 334.662 1151.03 322.799 1151.03 306.81C1151.03 290.621 1147.42 278.871 1140.89 270.873L1140.87 270.857ZM1144.53 346.14C1137.02 355.493 1126.51 360.17 1113.02 360.17C1099.68 360.17 1089.18 355.493 1081.51 346.14C1074 336.633 1070.24 323.523 1070.24 306.81C1070.24 289.943 1074 276.91 1081.51 267.71C1089.18 258.357 1099.68 253.68 1113.02 253.68C1126.67 253.68 1137.25 258.357 1144.76 267.71C1152.27 276.91 1156.03 289.943 1156.03 306.81C1156.03 323.523 1152.2 336.633 1144.53 346.14Z" fill="url(#paint10_radial_79_5071)"/>
<path fill-rule="evenodd" clip-rule="evenodd" d="M964.752 393V220.85H1010.4V393H964.752ZM969.752 388H1005.4V225.85H969.752V388Z" fill="url(#paint11_radial_79_5071)"/>
<path fill-rule="evenodd" clip-rule="evenodd" d="M858.069 393V260.29H804.479V220.85H957.31V260.29H903.719V393H858.069ZM898.719 255.29H952.31V225.85H809.479V255.29H863.069V388H898.719V255.29Z" fill="url(#paint12_radial_79_5071)"/>
<path fill-rule="evenodd" clip-rule="evenodd" d="M751.373 393V220.85H797.023V393H751.373ZM756.373 388H792.023V225.85H756.373V388Z" fill="url(#paint13_radial_79_5071)"/>
<path fill-rule="evenodd" clip-rule="evenodd" d="M573.258 393V220.85H641.738C670.167 220.85 692.927 228.126 709.303 243.34C725.758 258.471 733.678 279.888 733.678 306.81C733.678 333.741 725.753 355.224 709.312 370.503C692.934 385.722 670.172 393 641.738 393H573.258ZM705.908 247.01C690.728 232.903 669.338 225.85 641.738 225.85H578.258V388H641.738C669.338 388 690.728 380.947 705.908 366.84C721.088 352.733 728.678 332.723 728.678 306.81C728.678 280.897 721.088 260.963 705.908 247.01ZM618.908 353.79H639.668C656.141 353.79 667.58 349.658 674.937 342.267C682.298 334.873 686.418 323.372 686.418 306.81C686.418 290.331 682.301 278.89 674.945 271.533C667.588 264.177 656.147 260.06 639.668 260.06H618.908V353.79ZM639.668 358.79C674.168 358.79 691.418 341.463 691.418 306.81C691.418 272.31 674.168 255.06 639.668 255.06H613.908V358.79H639.668Z" fill="url(#paint14_radial_79_5071)"/>
<path fill-rule="evenodd" clip-rule="evenodd" d="M434 393V220.85H555.09V258.68H478.04V286.63H550.03V324.69H478.04V355.17H555.09V393H434ZM473.04 360.17V319.69H545.03V291.63H473.04V253.68H550.09V225.85H439V388H550.09V360.17H473.04Z" fill="url(#paint15_radial_79_5071)"/>
<defs>
<radialGradient id="paint0_radial_79_5071" cx="0" cy="0" r="1" gradientUnits="userSpaceOnUse" gradientTransform="translate(1365.86 103.256) rotate(90) scale(102.939 141.144)">
<stop stop-color="#EFDC01"/>
<stop offset="1" stop-color="#B68503"/>
</radialGradient>
<radialGradient id="paint1_radial_79_5071" cx="0" cy="0" r="1" gradientUnits="userSpaceOnUse" gradientTransform="translate(697.144 103.256) rotate(90) scale(102.939 141.144)">
<stop stop-color="#EFDC01"/>
<stop offset="1" stop-color="#B68503"/>
</radialGradient>
<radialGradient id="paint2_radial_79_5071" cx="0" cy="0" r="1" gradientUnits="userSpaceOnUse" gradientTransform="translate(1232.37 102.847) rotate(90) scale(100 193.036)">
<stop stop-color="#EFDC01"/>
<stop offset="1" stop-color="#B68503"/>
</radialGradient>
<radialGradient id="paint3_radial_79_5071" cx="0" cy="0" r="1" gradientUnits="userSpaceOnUse" gradientTransform="translate(1037.56 102.847) rotate(90) scale(100 177.803)">
<stop stop-color="#EFDC01"/>
<stop offset="1" stop-color="#B68503"/>
</radialGradient>
<radialGradient id="paint4_radial_79_5071" cx="0" cy="0" r="1" gradientUnits="userSpaceOnUse" gradientTransform="translate(851.572 102.847) rotate(90) scale(100 152.549)">
<stop stop-color="#EFDC01"/>
<stop offset="1" stop-color="#B68503"/>
</radialGradient>
<radialGradient id="paint5_radial_79_5071" cx="0" cy="0" r="1" gradientUnits="userSpaceOnUse" gradientTransform="translate(547.508 102.847) rotate(90) scale(100 45.5662)">
<stop stop-color="#EFDC01"/>
<stop offset="1" stop-color="#B68503"/>
</radialGradient>
<radialGradient id="paint6_radial_79_5071" cx="0" cy="0" r="1" gradientUnits="userSpaceOnUse" gradientTransform="translate(495.924 102.847) rotate(90) scale(100 154.129)">
<stop stop-color="#EFDC01"/>
<stop offset="1" stop-color="#B68503"/>
</radialGradient>
<radialGradient id="paint7_radial_79_5071" cx="0" cy="0" r="1" gradientUnits="userSpaceOnUse" gradientTransform="translate(318.784 102.847) rotate(90) scale(100 156.452)">
<stop stop-color="#EFDC01"/>
<stop offset="1" stop-color="#B68503"/>
</radialGradient>
<radialGradient id="paint8_radial_79_5071" cx="0" cy="0" r="1" gradientUnits="userSpaceOnUse" gradientTransform="translate(149.599 103.256) rotate(90) scale(102.939 149.099)">
<stop stop-color="#EFDC01"/>
<stop offset="1" stop-color="#B68503"/>
</radialGradient>
<radialGradient id="paint9_radial_79_5071" cx="0" cy="0" r="1" gradientUnits="userSpaceOnUse" gradientTransform="translate(1366.12 320.847) rotate(90) scale(100 150.254)">
<stop stop-color="#EFDC01"/>
<stop offset="1" stop-color="#B68503"/>
</radialGradient>
<radialGradient id="paint10_radial_79_5071" cx="0" cy="0" r="1" gradientUnits="userSpaceOnUse" gradientTransform="translate(1197.98 321.256) rotate(90) scale(102.939 169.997)">
<stop stop-color="#EFDC01"/>
<stop offset="1" stop-color="#B68503"/>
</radialGradient>
<radialGradient id="paint11_radial_79_5071" cx="0" cy="0" r="1" gradientUnits="userSpaceOnUse" gradientTransform="translate(1010.32 320.847) rotate(90) scale(100 45.5661)">
<stop stop-color="#EFDC01"/>
<stop offset="1" stop-color="#B68503"/>
</radialGradient>
<radialGradient id="paint12_radial_79_5071" cx="0" cy="0" r="1" gradientUnits="userSpaceOnUse" gradientTransform="translate(957.029 320.847) rotate(90) scale(100 152.549)">
<stop stop-color="#EFDC01"/>
<stop offset="1" stop-color="#B68503"/>
</radialGradient>
<radialGradient id="paint13_radial_79_5071" cx="0" cy="0" r="1" gradientUnits="userSpaceOnUse" gradientTransform="translate(796.939 320.847) rotate(90) scale(100 45.5662)">
<stop stop-color="#EFDC01"/>
<stop offset="1" stop-color="#B68503"/>
</radialGradient>
<radialGradient id="paint14_radial_79_5071" cx="0" cy="0" r="1" gradientUnits="userSpaceOnUse" gradientTransform="translate(733.383 320.847) rotate(90) scale(100 160.125)">
<stop stop-color="#EFDC01"/>
<stop offset="1" stop-color="#B68503"/>
</radialGradient>
<radialGradient id="paint15_radial_79_5071" cx="0" cy="0" r="1" gradientUnits="userSpaceOnUse" gradientTransform="translate(554.868 320.847) rotate(90) scale(100 120.868)">
<stop stop-color="#EFDC01"/>
<stop offset="1" stop-color="#B68503"/>
</radialGradient>
</defs>
</svg>
